<?xml version="1.0"?>
<svg width="1071.429" height="1000" xmlns="http://www.w3.org/2000/svg">

 <g>
  <title>background</title>
  <rect fill="none" id="canvas_background" height="402" width="582" y="-1" x="-1"/>
 </g>
 <g>
  <title>Layer 1</title>
  <path fill="#ffffff" id="svg_1" d="m499.967987,500.032013q0,-59.14801 -41.850006,-100.998016t-100.997986,-41.849976t-100.998016,41.849976t-41.849991,100.998016t41.849991,100.998016t100.998016,41.849976t100.997986,-41.849976t41.850006,-100.998016zm428.543976,285.696014q0,-29.015991 -21.203979,-50.219971t-50.219971,-21.204041t-50.220032,21.204041t-21.203979,50.219971q0,29.573975 20.924988,50.499023t50.499023,20.924988t50.498962,-20.924988t20.924988,-50.499023zm0,-571.392029q0,-29.015991 -21.203979,-50.220001t-50.219971,-21.203995t-50.220032,21.203995t-21.203979,50.220001q0,29.574005 20.924988,50.498993t50.499023,20.925018t50.498962,-20.925018t20.924988,-50.498993zm-214.271973,234.917999l0,103.230011q0,5.580017 -3.906006,10.880981t-8.927979,5.859009l-86.48999,13.392029q-6.138,19.529968 -17.856018,42.407959q18.971985,26.783997 50.219971,64.169983q3.906006,5.580017 3.906006,11.160034q0,6.695984 -3.906006,10.60199q-12.833984,16.73999 -46.034973,49.940979t-43.802979,33.20105q-6.138,0 -11.718018,-3.906006l-64.170013,-50.220032q-20.645996,10.60199 -42.966003,17.298035q-6.138,60.263977 -12.833984,86.48999q-3.906006,13.391968 -16.740021,13.391968l-103.787994,0q-6.138,0 -11.160004,-4.184998t-5.579987,-9.764954l-12.834015,-85.374023q-18.971985,-5.580017 -41.849991,-17.297974l-65.843994,49.661987q-3.906006,3.906006 -11.160004,3.906006q-6.138,0 -11.718002,-4.46405q-80.351997,-74.213989 -80.351997,-89.279968q0,-5.022034 3.905998,-10.60199q5.580002,-7.812012 22.878006,-29.574036t26.225998,-34.037964q-12.834,-24.552002 -19.529999,-45.756042l-84.816003,-13.391968q-5.58,-0.557983 -9.486,-5.301025t-3.906,-10.880981l0,-103.230011q0,-5.579987 3.906,-10.880981t8.928,-5.859009l86.49,-13.391998q6.138,-19.529999 17.856003,-42.40799q-18.972,-26.783997 -50.220001,-64.170013q-3.906002,-6.138 -3.906002,-11.160004q0,-6.695984 3.906002,-11.160004q12.276001,-16.73999 45.755997,-49.661987t44.082001,-32.921997q6.138,0 11.718002,3.905991l64.169998,50.220016q18.972,-10.044006 42.965988,-17.856018q6.138,-60.263992 12.834015,-85.931992q3.906006,-13.391998 16.73999,-13.391998l103.787994,0q6.138,0 11.160004,4.184998t5.580017,9.764999l12.833984,85.373993q18.972015,5.580002 41.850006,17.298004l65.843994,-49.662003q4.463989,-3.905991 11.160034,-3.905991q6.138,0 11.717957,4.463989q80.35199,74.21402 80.35199,89.279999q0,5.022003 -3.905945,10.60202q-6.696045,8.927979 -23.436035,30.131989t-25.109985,33.480011q12.833984,26.783997 18.971985,45.755981l84.815979,12.834015q5.580017,1.115997 9.486023,5.858978t3.906006,10.881012zm357.119995,297.414032l0,78.119995q0,8.927979 -83.141968,17.297974q-6.696045,15.065979 -16.740051,29.015991q28.458008,63.054016 28.458008,77.004028q0,2.231995 -2.231995,3.906006q-68.075989,39.617981 -69.192017,39.617981q-4.463989,0 -25.667969,-26.226013t-29.015991,-37.94397q-11.160034,1.115967 -16.73999,1.115967t-16.740051,-1.115967q-7.811951,11.717957 -29.015991,37.94397t-25.667969,26.226013q-1.116028,0 -69.192017,-39.617981q-2.231995,-1.674011 -2.231995,-3.906006q0,-13.950012 28.458008,-77.004028q-10.044006,-13.950012 -16.73999,-29.015991q-83.142029,-8.369995 -83.142029,-17.297974l0,-78.119995q0,-8.92804 83.142029,-17.298035q7.253967,-16.182007 16.73999,-29.015991q-28.458008,-63.054016 -28.458008,-77.004028q0,-2.231995 2.231995,-3.906006q2.231995,-1.115967 19.530029,-11.159973t32.921997,-18.971985t16.73999,-8.92804q4.463989,0 25.667969,25.947021t29.015991,37.664978q11.160034,-1.115967 16.740051,-1.115967t16.73999,1.115967q28.458008,-39.617981 51.335999,-62.495972l3.347961,-1.116028q2.231995,0 69.192017,39.059998q2.231995,1.674011 2.231995,3.906006q0,13.950012 -28.458008,77.004028q9.486023,12.833984 16.740051,29.015991q83.141968,8.369995 83.141968,17.298035zm0,-571.392059l0,78.119995q0,8.928009 -83.141968,17.298004q-6.696045,15.06601 -16.740051,29.015991q28.458008,63.054016 28.458008,77.003998q0,2.232025 -2.231995,3.906006q-68.075989,39.618011 -69.192017,39.618011q-4.463989,0 -25.667969,-26.226013t-29.015991,-37.944q-11.160034,1.115997 -16.73999,1.115997t-16.740051,-1.115997q-7.811951,11.718018 -29.015991,37.944t-25.667969,26.226013q-1.116028,0 -69.192017,-39.618011q-2.231995,-1.673981 -2.231995,-3.906006q0,-13.949982 28.458008,-77.003998q-10.044006,-13.949982 -16.73999,-29.015991q-83.142029,-8.369995 -83.142029,-17.298004l0,-78.119995q0,-8.927994 83.142029,-17.298004q7.253967,-16.181992 16.73999,-29.015991q-28.458008,-63.054008 -28.458008,-77.004005q0,-2.231998 2.231995,-3.905998q2.231995,-1.116001 19.530029,-11.16t32.921997,-18.972002t16.73999,-8.927999q4.463989,0 25.667969,25.946999t29.015991,37.665005q11.160034,-1.116005 16.740051,-1.116005t16.73999,1.116005q28.458008,-39.618004 51.335999,-62.496003l3.347961,-1.116q2.231995,0 69.192017,39.060009q2.231995,1.674 2.231995,3.906002q0,13.950001 -28.458008,77.003994q9.486023,12.834 16.740051,29.015991q83.141968,8.37001 83.141968,17.298004z"/>
 </g>
</svg>